Patient4_TMGait_0pt4_02_left_29_EMG.mot
version=1
nRows=26
nColumns=33
inDegrees=no
endheader
time	1LAddLong	2LGlutMax	3LGlutMed	4LIliopsoas	5LSemiMemb	6LBicFemLong	7LRecFem	8LVastMed	9LVastLat	10LGasMed	11LTibAnt	12lTibPost	13LPeroneusLong	14LSol	15LExtDigLong	16LFlexDigLong	17RAddLong	18RGlutMax	19RGlutMed	20RIliopsoas	21RSemiMemb	22RBicFemLong	23RRecFem	24RVastMed	25RVastLat	26RGasMed	27RTibAnt	28RTibPost	29RPeroneusLong	30RSol	31RExtDigLong	32RFlexDigLong
40.3	-0.01297	-0.06424	-0.058594	0.015411	-0.018921	0.032959	-0.019836	0.013733	0.055847	-0.065918	0.023193	0.003815	0.003052	-0.048523	0.011749	0.000458	0.028687	-0.038757	0.081635	-0.036621	-0.002289	0.012817	0.1059	0.006561	-0.18509	-0.011292	-0.010376	0.006561	0.67383	-0.059967	-0.002136	-0.011292
40.301	-0.012817	-0.059052	-0.093689	0.000458	-0.1181	-0.049744	-0.025482	0.005798	0.069275	-0.059814	0.00885	0.007629	-0.0177	-0.03479	-0.042419	0.010071	0.019379	-0.011444	0.093231	-0.11032	0.001373	0.020905	0.14938	0.00946	-0.16357	-0.001221	-0.013885	-0.008698	0.45349	-0.017548	-0.001526	-0.005035
40.302	0.018311	-0.029602	-0.071869	0.016022	-0.075836	-0.18509	-0.024261	0.004578	0.06546	-0.042419	0.003967	0.002289	-0.01358	-0.044861	0.004578	0.000153	0.018463	-0.00885	-0.24445	-0.21774	-0.012512	0.009003	0.18616	0.037079	-0.016785	-0.001526	0.010529	-0.015869	0.20325	0.010529	0.005341	-0.00412
40.303	0.009155	-0.05249	-0.037384	0.002594	-0.013885	-0.17853	0.000153	-0.000763	0.063324	-0.049744	0.005035	0.003967	0.007172	-0.024719	0.45685	0.006561	0.030212	-0.034485	0.33127	-0.28107	0.028076	0.019989	0.001831	0.045776	-0.023193	-0.002136	0.079803	-0.014954	-0.25909	0.080109	0.005035	-0.00946
40.304	0.008392	-0.061951	0.011902	0.011444	0.011902	-0.12711	-0.002136	0.000763	0.056763	-0.048676	0.010681	0.004425	-0.001831	-0.009613	0.15671	0.004578	0.008087	0.023499	-0.003204	-0.090485	0.064087	0.012512	-0.000305	0.023651	-0.12466	0.001526	0.066528	0.012665	-0.37811	-0.1976	0.011292	-0.005951
40.305	0.025024	-0.057831	0.063629	0.003662	-0.011749	-0.092621	0	0.00351	0.058289	-0.051727	0.029602	0.002289	0.010529	-0.00946	-0.021057	0.009308	0.019073	-0.029907	-0.2684	0.22369	0.13565	0.005798	0.067139	-0.02594	-0.086823	-0.01236	0.058289	0.005493	-0.65659	-0.22476	-0.00885	-0.011444
40.306	0.014343	-0.088196	0.030823	0.000305	0.042114	-0.076752	-0.000305	0.004272	0.066528	-0.05127	0.034637	0.009918	-0.008087	-0.019073	0.023651	-0.000153	0.029602	-0.072174	-0.31967	0.40237	0.062561	0.018921	0.047913	0.029907	-0.03067	-0.000763	-0.02594	0.000305	-0.48431	0.17532	-0.007324	-0.019379
40.307	0.015564	-0.075226	0.031128	0.006409	0.067902	-0.050812	-0.010223	0.007324	0.062103	-0.059357	0.093231	0.005646	0.020905	-0.033264	-0.42679	-0.00885	0.037994	-0.016785	-0.54275	0.21851	0.045166	0.030365	-0.11871	0.067596	0.024567	-0.002136	0.019379	-0.00351	-0.16113	0.007172	-0.000916	-0.014954
40.308	0.016327	-0.085602	0.007019	0.004272	0.018005	-0.050049	0	0.007782	0.04837	-0.051575	0.10468	0.002747	-0.032349	-0.040131	-0.24384	-0.000916	0.013275	0.020599	-0.40466	0.046844	-0.26108	0.10162	-0.29007	0.029907	0.057983	0.01358	0.042114	-0.012512	0.58304	0.012817	-0.004578	-0.014648
40.309	0.010986	-0.042725	-0.035858	0.010071	0.018311	-0.068512	-0.005798	0.006409	0.056763	-0.049133	0.00885	0.010223	0.009003	-0.044556	-0.1059	0.001221	-0.016327	-0.032501	-0.043945	-0.08606	-0.32211	0.032043	-0.336	-0.028687	-0.055237	0.000458	0.054932	-0.009613	-0.17395	0.28732	-0.000458	-0.01358
40.31	-0.000916	-0.034027	-0.071869	0.006256	-0.019531	-0.080566	0.010681	0.004425	0.067444	-0.033875	-0.093231	0.005341	0.007935	-0.028229	-0.12665	-0.01297	0.007324	-0.010986	0.298	-0.13168	-0.018768	-0.03067	-0.09903	-0.02243	-0.040436	0.013275	0.015564	-0.005035	0.075378	0.13901	-0.002289	-0.015564
40.311	-0.003815	-0.059814	-0.094452	0.010376	-0.075378	-0.096436	0.015106	0.00351	0.065308	-0.025024	-0.061951	0.005341	0.002747	-0.048523	-0.083008	0.000763	0.018463	0.000763	0.21225	0.036163	0.15503	0.001068	-0.011902	-0.057526	-0.030518	-0.049744	-0.045776	-0.009308	0.36987	0.028076	0.001526	-0.002899
40.312	-0.004425	-0.058136	-0.067902	0.017395	0.023956	-0.12177	0.007629	0.003357	0.066986	-0.031281	-0.052185	0.011749	-0.02182	-0.059814	-0.030823	-0.015717	0.021057	0.011444	-0.009308	0.073242	0.067291	0.056305	-0.040131	-0.053101	-0.023804	-0.13962	0.022125	-0.014801	-0.75851	0.034485	-0.003357	-0.001678
40.313	0.007629	-0.065002	0.011292	0.00885	0.07309	-0.16998	0.00061	-0.006561	0.081177	-0.031738	-0.01236	0.010223	0.019531	-0.037384	-0.039215	-0.002594	-0.003357	0.026245	-0.20065	0.10956	-0.18555	0.072632	0.00412	-0.049438	0.002747	-0.1236	0.065765	-0.026703	-0.49042	0.072174	0.000305	-0.003662
40.314	0.024719	-0.085907	0.023804	-0.002289	0.06012	-0.13992	0.024414	-0.005798	0.084686	-0.028229	0.014343	0.015564	-0.011292	-0.031586	0.00061	-0.009613	-0.002899	-0.038147	-0.495	0.025787	0.001068	-0.00473	0.029907	-0.009003	-0.00351	-0.10803	0.002899	0.069733	0.28961	0.018768	-0.002136	-0.009918
40.315	0.036621	-0.076141	0.014191	0.001068	0.005035	-0.11047	0.011749	-0.003052	0.082245	-0.055847	0.023193	0.012665	-0.036774	-0.016174	0.079498	0.003815	0.028229	-0.055237	-0.1738	-0.11169	0.12436	-0.07019	0.007172	-0.011444	0.016632	0.042267	0.018616	0.009613	-0.037689	-0.1384	-0.003357	-0.009918
40.316	0.01709	-0.060272	-0.029297	0.01297	0.001831	-0.10681	0.012665	-0.006104	0.070953	-0.057983	0.007324	0.015106	-0.011292	-0.00824	0.080261	-0.000458	0.027618	0.022888	-0.29114	-0.095825	0.11398	-0.093384	0.001678	-0.072784	0.007782	0.112	0.04303	-0.014191	-0.14206	-0.04776	-0.002136	-0.00412
40.317	0.011292	-0.044708	-0.019989	0.012054	0.022278	-0.083923	0.039368	0.00473	0.059967	-0.057526	0.010376	0.010376	0.038452	0.027924	0.18738	0.000153	0.011444	0.020752	-0.16998	-0.12573	0.039368	-0.033264	-0.013123	0.006409	-0.018768	0.06012	0.018616	-0.008087	-0.26886	0.21194	0.000458	-0.006561
40.318	-0.005188	-0.04425	0.028076	0.013275	0.004272	-0.039368	0.027466	-0.005493	0.063782	-0.04425	-0.022736	0.015564	0.00885	0.00824	0.25192	0.001678	-0.009918	0.027771	0.11307	0.02121	-0.058594	0.049744	-0.018616	0.030518	-0.016479	0.033112	-0.032043	-0.005798	0.15213	0.23132	-0.00351	-0.002899
40.319	-0.008698	-0.063934	0.032501	0.002747	-0.019226	-0.00885	0.034637	0.003662	0.055695	-0.022888	0.002441	0.01358	-0.06134	0.014038	0.14847	0.001068	-0.025177	-0.033417	0.32516	0.084991	0.067444	0.041046	0.029297	0.075684	-0.017853	0.023651	-0.019226	-0.002899	0.30701	0.18188	-0.003052	-0.00946
40.32	0.001373	-0.093231	-0.012054	0.002899	-0.02594	-0.002289	0.029449	-0.001526	0.050201	-0.026093	0.05661	0.015106	-0.077667	-0.019989	0.2063	-0.003052	0.004272	-0.026855	0.055542	0.03067	0.09552	0.015564	0.069733	0.019379	-0.017242	0.004883	-0.014954	-0.012207	0.30975	0.12024	-0.005341	-0.011902
40.321	0.007172	-0.10788	-0.00061	0.012512	0.005493	-0.000458	0.039978	0.005646	0.045929	-0.035706	-0.001984	0.011902	-0.041656	0.013428	0.054779	-0.001221	0.014038	-0.059052	-0.215	-0.045624	0.047455	0.024414	0.005341	0.014496	-0.027924	-0.003052	0.021973	-0.019531	-0.02533	0.067444	-0.000458	-0.012817
40.322	-0.00412	-0.1059	-0.010223	0.005493	-0.016785	0.03891	0.033569	0.000763	0.034943	-0.051422	-0.09903	0.016479	0.050049	0.006561	-0.05249	0.005493	0.006409	-0.050964	0.14832	0.000305	0.042114	0.02594	0.013275	-0.030975	0.040131	0.001068	0.030823	-0.020142	0.30609	-0.005951	-0.002441	0.000763
40.323	0.01297	-0.069122	-0.061035	0.006104	0.020142	0.005188	0.044556	0.004883	0.025635	-0.028992	-0.091553	0.019684	0.015564	0.003815	-0.16205	-0.009308	0.00946	0.025024	0.24857	0.082703	0.052032	0.014191	0.026703	-0.031586	0.002289	0.00824	-0.067291	-0.024567	1.0709	-0.019073	0.000153	-0.018616
40.324	0.006104	-0.096741	0.008545	0.003052	-0.006256	-0.022888	0.03479	0.002899	0.024719	-0.005646	-0.10391	0.012512	-0.058289	-0.023346	-0.14328	-0.018768	0.013123	-0.022125	0.11047	0.13306	0.047913	0.03067	-0.044403	-0.022278	-0.008087	0.021057	0.020599	-0.028992	-0.97076	0.030212	0.004272	-0.014801
40.325	-0.009155	-0.10223	-0.005646	-0.000916	0.013733	-0.043488	0.033722	0.003662	0.013275	-0.009003	-0.13031	0.013275	-0.087585	0.010071	-0.01236	-0.003815	0.00351	0.042419	-0.027313	0.075989	0.044861	0.019226	-0.083008	-0.024414	-0.027771	0.009613	-0.028534	0.046234	-0.2359	-0.06897	-0.003357	-0.011292
